# Blender v2.83.5 OBJ File: 'platform3.blend'
# www.blender.org
mtllib platform3.mtl
o Cube.003
v 0.000000 -4.000000 30.375650
v 0.000000 4.000000 30.375650
v -45.563496 -4.000000 -15.187844
v 45.563496 -4.000000 -15.187844
v -45.563496 4.000000 -15.187844
v 45.563496 4.000000 -15.187844
v -41.421360 3.999999 -13.807133
v -41.421356 -4.000000 -13.807131
v 41.421360 3.999999 -13.807133
v 41.421356 -4.000000 -13.807131
v 0.000000 3.999999 27.614227
v 0.000000 -4.000000 27.614227
vt 0.375000 0.000000
vt 0.625000 0.000000
vt 0.625000 0.073223
vt 0.375000 0.073223
vt 0.562500 0.926777
vt 0.562500 0.823223
vt 0.437500 0.823223
vt 0.437500 0.926777
vt 0.375000 0.926777
vt 0.625000 0.926777
vt 0.625000 1.000000
vt 0.375000 1.000000
vt 0.801777 0.750000
vt 0.875000 0.676777
vt 0.875000 0.750000
vt 0.872781 0.747781
vt 0.872781 0.681214
vt 0.806215 0.747781
vt 0.125000 0.676777
vt 0.198223 0.750000
vt 0.193786 0.747781
vt 0.127219 0.681215
vt 0.437500 1.000000
vt 0.562500 1.000000
vt 0.562500 0.926777
vt 0.437500 0.926777
vt 0.531250 0.926777
vt 0.468750 0.926777
vt 0.468750 0.823223
vt 0.531250 0.823223
vt 0.437500 0.073223
vt 0.562500 0.073223
vt 0.562500 0.000000
vt 0.437500 0.000000
vt 0.127219 0.747781
vt 0.125000 0.750000
vn -0.7071 0.0000 0.7071
vn 0.0000 0.0000 -1.0000
vn 0.7071 0.0000 0.7071
vn 0.0000 1.0000 0.0000
vn 0.0000 -1.0000 0.0000
vn -0.7071 0.0000 -0.7071
vn 0.0000 0.0000 1.0000
vn 0.7071 0.0000 -0.7071
usemtl None
s off
f 1/1/1 2/2/1 5/3/1 3/4/1
f 5/5/2 6/6/2 4/7/2 3/8/2
f 4/9/3 6/10/3 2/11/3 1/12/3
f 6/13/4 5/14/4 2/15/4 11/16/4 7/17/4 9/18/4
f 3/19/5 4/20/5 10/21/5 8/22/5
f 12/23/6 11/24/6 9/25/6 10/26/6
f 7/27/7 8/28/7 10/29/7 9/30/7
f 8/31/8 7/32/8 11/33/8 12/34/8
f 8/22/5 12/35/5 10/21/5 4/20/5 1/36/5 3/19/5
f 9/18/4 11/16/4 2/15/4 6/13/4
o Cube.001_Cube.004
v 0.000000 -1.000000 27.614227
v 0.000000 1.000000 27.614227
v -41.421356 -1.000000 -13.807131
v 41.421356 -1.000000 -13.807131
v -41.421356 1.000000 -13.807131
v 41.421356 1.000000 -13.807131
v 28.498766 1.000000 -10.694818
v 28.498766 -1.000000 -10.694818
v 28.683586 1.000000 -11.040591
v 28.683586 -1.000000 -11.040591
v 31.111891 1.000000 -11.777208
v 31.111891 -1.000000 -11.777208
v 30.736706 1.000000 -11.891021
v 30.736706 -1.000000 -11.891021
v 28.384956 1.000000 -10.319633
v 28.384956 -1.000000 -10.319633
v 31.760740 1.000000 -11.343664
v 31.760740 -1.000000 -11.343664
v 31.457664 1.000000 -8.266509
v 31.457664 -1.000000 -8.266509
v 31.111891 1.000000 -8.081690
v 31.111891 -1.000000 -8.081690
v 32.009464 1.000000 -11.040591
v 32.009464 -1.000000 -11.040591
v 30.736706 1.000000 -7.967880
v 30.736706 -1.000000 -7.967880
v 29.581158 1.000000 -8.081692
v 29.581158 -1.000000 -8.081692
v 28.346525 1.000000 -9.929453
v 28.346525 -1.000000 -9.929453
v 29.581160 1.000000 -11.777208
v 29.581160 -1.000000 -11.777208
v 29.235384 1.000000 -8.266512
v 29.235384 -1.000000 -8.266512
v 32.308098 1.000000 -9.539269
v 32.308098 -1.000000 -9.539269
v 31.760738 1.000000 -8.515236
v 31.760738 -1.000000 -8.515236
v 32.194283 1.000000 -9.164083
v 32.194283 -1.000000 -9.164083
v 32.346527 1.000000 -9.929449
v 32.346527 -1.000000 -9.929449
v 28.932314 1.000000 -11.343664
v 28.932314 -1.000000 -11.343664
v 29.235388 1.000000 -11.592390
v 29.235388 -1.000000 -11.592390
v 30.346527 1.000000 -7.929452
v 30.346527 -1.000000 -7.929452
v 30.346523 1.000000 -11.929450
v 30.346523 -1.000000 -11.929450
v 32.308098 1.000000 -10.319631
v 32.308098 -1.000000 -10.319631
v 31.457666 1.000000 -11.592390
v 31.457666 -1.000000 -11.592390
v 32.194283 1.000000 -10.694816
v 32.194283 -1.000000 -10.694816
v 28.498764 1.000000 -9.164084
v 28.498764 -1.000000 -9.164084
v 28.683586 1.000000 -8.818311
v 28.683586 -1.000000 -8.818311
v 28.384956 1.000000 -9.539273
v 28.384956 -1.000000 -9.539273
v 28.932312 1.000000 -8.515237
v 28.932312 -1.000000 -8.515237
v 29.956345 1.000000 -7.967880
v 29.956345 -1.000000 -7.967880
v 32.009464 1.000000 -8.818309
v 32.009464 -1.000000 -8.818309
v 29.956348 1.000000 -11.891021
v 29.956348 -1.000000 -11.891021
vt 0.375000 0.000000
vt 0.625000 0.000000
vt 0.625000 0.073223
vt 0.375000 0.073223
vt 0.562500 0.926777
vt 0.562500 0.823223
vt 0.437500 0.823223
vt 0.437500 0.926777
vt 0.375000 0.926777
vt 0.625000 0.926777
vt 0.625000 1.000000
vt 0.375000 1.000000
vt 0.801777 0.750000
vt 0.875000 0.676777
vt 0.875000 0.750000
vt 0.817493 0.743639
vt 0.817445 0.743151
vt 0.817303 0.742682
vt 0.817072 0.742250
vt 0.816761 0.741871
vt 0.816382 0.741560
vt 0.815950 0.741329
vt 0.815481 0.741187
vt 0.814993 0.741139
vt 0.814505 0.741186
vt 0.814036 0.741329
vt 0.813604 0.741560
vt 0.813225 0.741871
vt 0.812914 0.742250
vt 0.812683 0.742682
vt 0.812541 0.743151
vt 0.812493 0.743639
vt 0.125000 0.676777
vt 0.198223 0.750000
vt 0.187507 0.743639
vt 0.187459 0.743151
vt 0.187317 0.742682
vt 0.187086 0.742250
vt 0.186775 0.741871
vt 0.186396 0.741560
vt 0.185964 0.741329
vt 0.185495 0.741187
vt 0.185007 0.741139
vt 0.184519 0.741187
vt 0.184050 0.741329
vt 0.183618 0.741560
vt 0.183239 0.741871
vt 0.182928 0.742250
vt 0.182697 0.742682
vt 0.182555 0.743151
vt 0.182507 0.743639
vt 0.125000 0.750000
vt 0.718750 0.625000
vt 0.718750 0.875000
vt 0.750000 0.875000
vt 0.750000 0.625000
vt 0.625000 0.625000
vt 0.625000 0.875000
vt 0.656250 0.875000
vt 0.656250 0.625000
vt 0.687500 0.875000
vt 0.687500 0.625000
vt 0.218750 0.625000
vt 0.218750 0.875000
vt 0.250000 0.875000
vt 0.250000 0.625000
vt 0.781250 0.625000
vt 0.781250 0.875000
vt 0.812500 0.875000
vt 0.812500 0.625000
vt 0.843750 0.625000
vt 0.843750 0.875000
vt 0.875000 0.875000
vt 0.875000 0.625000
vt 0.000000 0.625000
vt 0.000000 0.875000
vt 0.031250 0.875000
vt 0.031250 0.625000
vt 0.468750 0.625000
vt 0.468750 0.875000
vt 0.500000 0.875000
vt 0.500000 0.625000
vt 0.156250 0.625000
vt 0.156250 0.875000
vt 0.187500 0.875000
vt 0.187500 0.625000
vt 0.531250 0.875000
vt 0.531250 0.625000
vt 0.062500 0.875000
vt 0.062500 0.625000
vt 0.906250 0.875000
vt 0.906250 0.625000
vt 0.406250 0.625000
vt 0.406250 0.875000
vt 0.437500 0.875000
vt 0.437500 0.625000
vt 0.937500 0.875000
vt 0.937500 0.625000
vt 0.593750 0.625000
vt 0.593750 0.875000
vt 0.093750 0.625000
vt 0.093750 0.875000
vt 0.125000 0.875000
vt 0.125000 0.625000
vt 0.182555 0.744126
vt 0.182697 0.744595
vt 0.182928 0.745027
vt 0.183239 0.745406
vt 0.183618 0.745717
vt 0.184050 0.745948
vt 0.184519 0.746091
vt 0.185007 0.746139
vt 0.185495 0.746091
vt 0.185964 0.745948
vt 0.186396 0.745717
vt 0.186775 0.745406
vt 0.187086 0.745027
vt 0.187317 0.744595
vt 0.187459 0.744126
vt 0.562500 0.625000
vt 0.562500 0.875000
vt 0.375000 0.625000
vt 0.375000 0.875000
vt 0.312500 0.625000
vt 0.312500 0.875000
vt 0.343750 0.875000
vt 0.343750 0.625000
vt 0.968750 0.625000
vt 0.968750 0.875000
vt 1.000000 0.875000
vt 1.000000 0.625000
vt 0.281250 0.875000
vt 0.281250 0.625000
vt 0.812541 0.744126
vt 0.812683 0.744595
vt 0.812914 0.745027
vt 0.813225 0.745406
vt 0.813604 0.745717
vt 0.814036 0.745948
vt 0.814505 0.746090
vt 0.814993 0.746139
vt 0.815481 0.746091
vt 0.815950 0.745948
vt 0.816382 0.745717
vt 0.816761 0.745406
vt 0.817072 0.745027
vt 0.817303 0.744595
vt 0.817445 0.744126
vn -0.7071 0.0000 0.7071
vn 0.0000 0.0000 -1.0000
vn 0.7071 0.0000 0.7071
vn 0.0000 1.0000 0.0000
vn 0.0000 -1.0000 0.0000
vn -0.9952 0.0000 -0.0980
vn -0.7730 0.0000 -0.6344
vn -0.8819 0.0000 -0.4714
vn 0.9952 0.0000 0.0980
vn -0.9569 0.0000 0.2903
vn -0.9952 0.0000 0.0980
vn -0.7730 0.0000 0.6344
vn 0.0980 0.0000 0.9952
vn 0.0980 0.0000 -0.9952
vn 0.8819 0.0000 0.4714
vn -0.0980 0.0000 -0.9952
vn 0.2903 0.0000 0.9569
vn -0.6344 0.0000 0.7730
vn 0.4714 0.0000 -0.8819
vn -0.4714 0.0000 0.8819
vn -0.6344 0.0000 -0.7730
vn 0.6344 0.0000 0.7730
vn 0.9569 0.0000 0.2903
vn -0.4714 0.0000 -0.8819
vn 0.6344 0.0000 -0.7730
vn 0.8819 0.0000 -0.4714
vn -0.0980 0.0000 0.9952
vn -0.8819 0.0000 0.4714
vn 0.9952 0.0000 -0.0980
vn -0.9569 0.0000 -0.2903
vn 0.2903 0.0000 -0.9569
vn 0.4714 0.0000 0.8819
vn -0.2903 0.0000 0.9569
vn -0.2903 0.0000 -0.9569
vn 0.9569 0.0000 -0.2903
vn 0.7730 0.0000 0.6344
vn 0.7730 0.0000 -0.6344
usemtl None
s off
f 13/37/9 14/38/9 17/39/9 15/40/9
f 17/41/10 18/42/10 16/43/10 15/44/10
f 16/45/11 18/46/11 14/47/11 13/48/11
f 18/49/12 17/50/12 14/51/12 75/52/12 71/53/12 69/54/12 73/55/12 41/56/12 27/57/12 19/58/12 21/59/12 55/60/12 57/61/12 43/62/12 81/63/12 61/64/12 25/65/12 23/66/12 65/67/12 29/68/12
f 15/69/13 16/70/13 30/71/13 66/72/13 24/73/13 26/74/13 62/75/13 82/76/13 44/77/13 58/78/13 56/79/13 22/80/13 20/81/13 28/82/13 42/83/13 74/84/13 70/85/13 72/86/13 76/87/13 13/88/13
f 48/89/14 47/90/14 53/91/14 54/92/14
f 50/93/15 49/94/15 79/95/15 80/96/15
f 80/96/16 79/95/16 51/97/16 52/98/16
f 28/99/17 27/100/17 41/101/17 42/102/17
f 64/103/18 63/104/18 67/105/18 68/106/18
f 54/92/19 53/91/19 63/104/19 64/103/19
f 36/107/20 35/108/20 29/109/20 30/110/20
f 62/111/21 61/112/21 81/113/21 82/114/21
f 78/115/22 77/116/22 59/117/22 60/118/22
f 22/119/23 21/120/23 19/121/23 20/122/23
f 60/118/24 59/117/24 37/123/24 38/124/24
f 82/114/25 81/113/25 43/125/25 44/126/25
f 30/110/26 29/109/26 65/127/26 66/128/26
f 46/129/27 45/130/27 39/131/27 40/132/27
f 66/128/28 65/127/28 23/133/28 24/134/28
f 32/135/29 31/136/29 49/94/29 50/93/29
f 58/137/30 57/138/30 55/139/30 56/140/30
f 20/122/31 19/121/31 27/100/31 28/99/31
f 13/88/13 76/87/13 46/141/13 40/142/13 78/143/13 60/144/13 38/145/13 34/146/13 32/147/13 50/148/13 80/149/13 52/150/13 48/151/13 54/152/13 64/153/13 68/154/13 36/155/13 30/71/13 16/70/13
f 34/156/32 33/157/32 31/136/32 32/135/32
f 76/158/33 75/159/33 45/130/33 46/129/33
f 70/160/34 69/161/34 71/162/34 72/163/34
f 26/164/35 25/165/35 61/166/35 62/167/35
f 68/106/36 67/105/36 35/108/36 36/107/36
f 42/102/37 41/101/37 73/168/37 74/169/37
f 52/98/38 51/97/38 47/90/38 48/89/38
f 40/132/39 39/131/39 77/116/39 78/115/39
f 29/68/12 35/170/12 67/171/12 63/172/12 53/173/12 47/174/12 51/175/12 79/176/12 49/177/12 31/178/12 33/179/12 37/180/12 59/181/12 77/182/12 39/183/12 45/184/12 75/52/12 14/51/12 18/49/12
f 44/126/40 43/125/40 57/138/40 58/137/40
f 24/134/41 23/133/41 25/165/41 26/164/41
f 38/124/42 37/123/42 33/157/42 34/156/42
f 74/169/43 73/168/43 69/161/43 70/160/43
f 56/140/44 55/139/44 21/120/44 22/119/44
f 72/163/45 71/162/45 75/159/45 76/158/45
